HIERARCHY
ROOT SpineBase
{
  OFFSET 0.000000 0.000000 0.000000
  CHANNELS 6 Xposition Yposition Zposition Zrotation Xrotation Yrotation
  JOINT SpineMid
  {
    OFFSET 0.000000 34.093948 -0.000000
    CHANNELS 3 Zrotation Xrotation Yrotation
    JOINT SpineShoulder
    {
      OFFSET 0.060852 25.201311 -0.838581
      CHANNELS 3 Zrotation Xrotation Yrotation
      JOINT Neck
      {
        OFFSET 0.047128 8.290779 -0.607642
        CHANNELS 3 Zrotation Xrotation Yrotation
        JOINT Head
        {
          OFFSET -0.809683 11.912286 1.318512
          CHANNELS 3 Zrotation Xrotation Yrotation
          End Site
          {
            OFFSET 0 0 0
          }
        }
      }
      JOINT ShoulderLeft
      {
        OFFSET -16.830822 -6.787287 -0.061060
        CHANNELS 3 Zrotation Xrotation Yrotation
        JOINT ElbowLeft
        {
          OFFSET -7.105186 -23.018646 8.837799
          CHANNELS 3 Zrotation Xrotation Yrotation
          JOINT WristLeft
          {
            OFFSET 7.196666 -19.714463 7.918026
            CHANNELS 3 Zrotation Xrotation Yrotation
            JOINT HandLeft
            {
              OFFSET 2.075874 -6.134690 1.859801
              CHANNELS 3 Zrotation Xrotation Yrotation
              JOINT HandTipLeft
              {
                OFFSET 4.718955 -8.200211 5.908701
                CHANNELS 3 Zrotation Xrotation Yrotation
                End Site
                {
                  OFFSET 0 0 0
                }
              }
              JOINT ThumbLeft
              {
                OFFSET -4.278518 -2.854773 -4.968792
                CHANNELS 3 Zrotation Xrotation Yrotation
                End Site
                {
                  OFFSET 0 0 0
                }
              }
            }
          }
        }
      }
      JOINT ShoulderRight
      {
        OFFSET 13.647368 -7.712783 -10.400245
        CHANNELS 3 Zrotation Xrotation Yrotation
        JOINT ElbowRight
        {
          OFFSET 5.050987 -25.649377 1.620855
          CHANNELS 3 Zrotation Xrotation Yrotation
          JOINT WristRight
          {
            OFFSET 2.157376 -18.802612 5.428607
            CHANNELS 3 Zrotation Xrotation Yrotation
            JOINT HandRight
            {
              OFFSET -1.272552 -7.943496 3.357949
              CHANNELS 3 Zrotation Xrotation Yrotation
              JOINT HandTipRight
              {
                OFFSET 1.271159 -6.635254 2.037074
                CHANNELS 3 Zrotation Xrotation Yrotation
                End Site
                {
                  OFFSET 0 0 0
                }
              }
              JOINT ThumbRight
              {
                OFFSET -1.642348 -0.545990 -5.931207
                CHANNELS 3 Zrotation Xrotation Yrotation
                End Site
                {
                  OFFSET 0 0 0
                }
              }
            }
          }
        }
      }
    }
  }
  JOINT HipLeft
  {
    OFFSET -7.116906 0.660325 -1.073689
    CHANNELS 3 Zrotation Xrotation Yrotation
    JOINT KneeLeft
    {
      OFFSET -1.952833 -28.552560 5.900594
      CHANNELS 3 Zrotation Xrotation Yrotation
      JOINT AnkleLeft
      {
        OFFSET 14.413704 -35.673681 -13.764291
        CHANNELS 3 Zrotation Xrotation Yrotation
        JOINT FootLeft
        {
          OFFSET -8.278594 2.190964 6.337032
          CHANNELS 3 Zrotation Xrotation Yrotation
          End Site
          {
            OFFSET 0 0 0
          }
        }
      }
    }
  }
  JOINT HipRight
  {
    OFFSET 7.723652 1.502587 -5.605796
    CHANNELS 3 Zrotation Xrotation Yrotation
    JOINT KneeRight
    {
      OFFSET 1.358628 -30.581050 -1.050265
      CHANNELS 3 Zrotation Xrotation Yrotation
      JOINT AnkleRight
      {
        OFFSET -20.901434 -27.865650 14.026094
        CHANNELS 3 Zrotation Xrotation Yrotation
        JOINT FootRight
        {
          OFFSET 9.235056 -2.688845 -10.806121
          CHANNELS 3 Zrotation Xrotation Yrotation
          End Site
          {
            OFFSET 0 0 0
          }
        }
      }
    }
  }
}
MOTION
Frames: 13
Frame Time: 0.033333
-20.887740 67.506820 230.840770 -0.000000 -0.000000 16.981968 0.000000 0.000000 -16.981968 -0.000000 0.000000 0.000000 -0.000000 0.000000 0.000000 0.000000 0.000000 0.000000 -0.000000 0.000000 0.000000 -0.000000 0.000000 0.000000 -0.000000 0.000000 0.000000 -0.000000 0.000000 0.000000 0.000000 0.000000 0.000000 0.000000 0.000000 0.000000 -0.000000 0.000000 0.000000 -0.000000 0.000000 0.000000 -0.000000 0.000000 0.000000 -0.000000 0.000000 0.000000 0.000000 0.000000 0.000000 0.000000 0.000000 0.000000 0.000000 0.000000 -16.981968 -0.000000 0.000000 0.000000 -0.000000 0.000000 0.000000 0.000000 0.000000 0.000000 0.000000 0.000000 -16.981968 -0.000000 0.000000 0.000000 -0.000000 0.000000 0.000000 0.000000 0.000000 0.000000
-21.574654 67.512322 231.253020 0.013296 0.143168 17.091903 -0.054787 -0.132937 -17.091983 -0.000000 0.000000 0.000000 -0.000000 0.000000 0.000000 0.000000 0.000000 0.000000 -0.560431 -0.613655 -0.028654 0.560156 0.613906 0.022651 -0.000000 0.000000 0.000000 -0.000000 0.000000 0.000000 0.000000 0.000000 0.000000 0.000000 0.000000 0.000000 -0.000000 0.000000 0.000000 -0.000000 0.000000 0.000000 -0.000000 0.000000 0.000000 0.104199 -1.526791 -0.258036 0.000000 0.000000 0.000000 0.000000 0.000000 0.000000 1.088061 -0.216699 -16.874908 -1.117947 -0.251613 -0.216043 -0.000000 0.000000 0.000000 0.000000 0.000000 0.000000 -0.054787 -0.132937 -17.091983 -0.000000 0.000000 0.000000 -0.000000 0.000000 0.000000 0.000000 0.000000 0.000000
-22.208279 67.517314 231.638796 0.060882 0.313621 17.176906 -0.150787 -0.281652 -17.177443 -0.000000 0.000000 0.000000 -0.000000 0.000000 0.000000 0.000000 0.000000 0.000000 -0.975076 -1.064476 -0.054519 0.974231 1.065249 0.036404 -0.000000 0.000000 0.000000 -0.000000 0.000000 0.000000 0.000000 0.000000 0.000000 0.000000 0.000000 0.000000 -0.000000 0.000000 0.000000 -0.000000 0.000000 0.000000 0.743202 -0.063557 0.325033 -0.630637 -2.344099 -0.742521 0.000000 0.000000 0.000000 0.000000 0.000000 0.000000 1.994926 -0.434162 -16.763541 -2.098463 -0.472989 -0.409160 -0.685345 -0.705243 -0.715646 0.000000 0.000000 0.000000 1.112754 -0.643051 -17.211115 -1.313852 -0.028775 0.043539 -0.000000 0.000000 0.000000 0.000000 0.000000 0.000000
-22.788614 67.521797 231.998097 0.142650 0.511334 17.237220 -0.287773 -0.446093 -17.238977 -0.000000 0.000000 0.000000 -0.000000 0.000000 0.000000 0.000000 0.000000 0.000000 -1.243377 -1.352183 -0.074092 1.241974 1.353472 0.044749 -0.000000 0.000000 0.000000 -0.000000 0.000000 0.000000 0.000000 0.000000 0.000000 0.000000 0.000000 0.000000 0.857612 0.474561 0.143923 -0.396484 0.479394 0.091538 0.504900 -0.930795 0.175643 -0.906392 -2.818506 -0.912301 0.000000 0.000000 0.000000 0.000000 0.000000 0.000000 2.722225 -0.651864 -16.649136 -2.942586 -0.665705 -0.578093 -0.679637 -0.775230 -1.010487 0.000000 0.000000 0.000000 1.486870 -0.979516 -17.279776 -1.638760 0.681615 -0.357092 0.484489 -0.051350 -0.148484 0.000000 0.000000 0.000000
-23.315660 67.525770 232.330923 0.258526 0.736301 17.272938 0.031743 0.055482 -17.267531 -0.016271 0.044001 0.006638 -0.256294 -0.842643 -0.015870 0.000000 0.000000 0.000000 -1.621301 -2.317539 -0.121003 1.362195 1.477118 0.049928 -0.000000 0.000000 0.000000 -0.000000 0.000000 0.000000 0.000000 0.000000 0.000000 0.000000 0.000000 0.000000 0.912905 -0.111677 0.211387 -0.430710 0.527563 0.134028 0.358523 -1.066795 0.092212 -1.145694 -2.945764 -0.970662 0.000000 0.000000 0.000000 0.000000 0.000000 0.000000 3.271840 -0.869661 -16.532957 -2.819531 -0.319474 -0.820616 -1.264914 -1.185691 -1.164650 0.000000 0.000000 0.000000 1.741712 -1.324929 -17.319541 -1.956426 0.951515 -0.451761 0.530714 -0.110494 -0.162635 0.000000 0.000000 0.000000
-23.789416 67.529234 232.637275 0.408468 0.988534 17.284006 0.036227 0.076202 -17.276345 -0.022106 0.056070 0.010988 -0.398753 -1.127967 -0.026719 0.000000 0.000000 0.000000 -1.734751 -2.559054 -0.139293 1.332674 1.433635 0.052916 -0.000000 0.000000 0.000000 -0.000000 0.000000 0.000000 0.000000 0.000000 0.000000 0.000000 0.000000 0.000000 1.094623 -0.091367 0.287165 -0.427040 0.505446 0.178544 0.069292 -1.095620 -0.060559 -1.352158 -2.741116 -0.920048 0.000000 0.000000 0.000000 0.000000 0.000000 0.000000 3.645761 -1.087741 -16.416267 -3.046200 -0.252319 -0.980522 -1.136073 -1.102820 -1.332649 0.000000 0.000000 0.000000 1.878743 -1.678977 -17.331714 -2.161306 1.241791 -0.533711 0.518946 -0.189895 -0.160572 0.000000 0.000000 0.000000
-24.224529 67.539142 232.908591 0.555780 1.248171 17.148311 0.018210 0.078601 -17.139734 -0.034754 0.055525 0.014166 -0.515953 -1.383897 -0.036147 0.000000 0.000000 0.000000 -1.372672 -2.253759 -0.122783 0.854702 0.871444 0.052943 -0.000000 0.000000 0.000000 -0.000000 0.000000 0.000000 0.000000 0.000000 0.000000 0.000000 0.000000 0.000000 1.212006 -0.101087 0.347371 -0.397838 0.804119 0.249160 -0.202975 -1.498318 -0.224147 -1.822911 -1.698341 -0.829664 0.000000 0.000000 0.000000 0.000000 0.000000 0.000000 3.941050 -1.278099 -16.170166 -3.141144 -0.204897 -1.146303 -0.408902 -0.486391 -1.335490 0.000000 0.000000 0.000000 1.872760 -2.068001 -17.196746 -1.937178 1.715584 -0.555369 0.482470 -0.016201 -0.083249 0.000000 0.000000 0.000000
-24.582176 67.538182 233.156993 0.805313 1.582960 17.099336 0.037286 0.117440 -17.088630 -0.034541 0.082837 0.022649 -0.248485 -1.159316 -0.060216 0.000000 0.000000 0.000000 -0.773298 -1.788376 -0.058511 -0.000000 0.000000 0.000000 -0.000000 0.000000 0.000000 -0.000000 0.000000 0.000000 0.000000 0.000000 0.000000 0.000000 0.000000 0.000000 1.422073 -0.019184 0.462167 -0.704334 0.624138 0.200848 -0.297782 -1.504029 -0.326104 -2.284805 -0.471719 -0.647614 0.000000 0.000000 0.000000 0.000000 0.000000 0.000000 3.919907 -1.501249 -16.050389 -2.891605 0.099593 -1.243570 0.445133 0.122791 -1.351253 0.000000 0.000000 0.000000 1.648857 -2.473042 -17.149671 -1.776512 2.114497 -0.606164 0.244777 -0.201212 0.001232 0.000000 0.000000 0.000000
-24.831975 67.532329 233.378999 1.119596 1.921968 17.083885 0.036264 0.135802 -17.072060 -0.040579 0.090083 0.032843 -0.299498 -0.945782 -0.069497 0.000000 0.000000 0.000000 -1.076235 -2.151258 -0.086734 -0.000000 0.000000 0.000000 -0.000000 0.000000 0.000000 -0.000000 0.000000 0.000000 0.000000 0.000000 0.000000 0.000000 0.000000 0.000000 1.504871 0.101429 0.564728 -0.833555 -0.011612 0.141965 0.078906 -0.007380 -0.343073 -3.779260 0.754601 -0.516023 0.000000 0.000000 0.000000 0.000000 0.000000 0.000000 3.574926 -1.720407 -16.020198 -2.363152 0.295467 -1.377121 -0.313321 -0.413767 -1.779259 0.000000 0.000000 0.000000 1.252713 -2.813676 -17.140890 -1.903286 2.308075 -0.714297 -0.157056 -0.884647 0.095827 0.000000 0.000000 0.000000
-25.128434 67.540539 233.593168 1.421872 2.322181 17.085562 0.074253 0.223155 -17.076008 -0.041601 0.133440 0.042487 -0.553780 -0.831528 -0.059136 0.000000 0.000000 0.000000 -1.389677 -2.688644 -0.118971 -0.000000 0.000000 0.000000 -0.000000 0.000000 0.000000 -0.000000 0.000000 0.000000 0.000000 0.000000 0.000000 0.000000 0.000000 0.000000 1.589601 0.135010 0.689893 -0.374317 -0.739252 0.260924 -1.187490 1.370359 -0.992552 -2.619678 2.087971 0.594758 0.000000 0.000000 0.000000 0.000000 0.000000 0.000000 3.224389 -2.037851 -15.999890 -1.758518 0.699931 -1.482709 0.326313 0.015035 -2.099682 0.000000 0.000000 0.000000 1.195610 -3.183903 -17.142158 -2.407090 2.346052 -0.826816 -0.188775 -1.251768 -0.044423 0.000000 0.000000 0.000000
-25.380131 67.554760 233.747596 1.721226 2.746639 17.148381 0.124582 0.343434 -17.144721 -0.044890 0.185882 0.051216 -0.713992 -0.479109 -0.039060 0.000000 0.000000 0.000000 -1.197452 -2.570530 -0.160564 -0.499861 -0.725264 0.028680 -0.000000 0.000000 0.000000 -0.000000 0.000000 0.000000 0.000000 0.000000 0.000000 0.000000 0.000000 0.000000 1.621416 0.138954 0.820792 -0.140888 -1.117363 0.334454 -1.254093 2.384486 -1.208528 -3.096306 3.016095 0.981555 0.000000 0.000000 0.000000 0.000000 0.000000 0.000000 2.783341 -2.407550 -16.057002 -1.120989 1.106589 -1.582460 0.914478 0.422698 -2.388110 0.000000 0.000000 0.000000 1.296950 -3.568698 -17.198990 -3.182583 2.276976 -0.956685 -0.034242 -1.526101 -0.292991 0.000000 0.000000 0.000000
-25.590659 67.580763 233.847153 1.972134 3.181287 17.237525 0.183203 0.491516 -17.243639 -0.042260 0.232640 0.058356 -0.813167 -0.197077 -0.020106 0.000000 0.000000 0.000000 -1.422884 -3.086987 -0.209866 0.421393 -0.801795 0.465962 -0.961950 -0.039135 -0.402153 -0.000000 0.000000 0.000000 0.000000 0.000000 0.000000 0.000000 0.000000 0.000000 1.591148 0.067499 0.941450 0.402542 -1.278153 0.514715 -1.980595 2.717184 -1.616044 -2.447758 4.324046 1.710023 0.000000 0.000000 0.000000 0.000000 0.000000 0.000000 2.354528 -2.816578 -16.145618 -0.467975 1.569112 -1.668775 2.083461 1.266645 -2.545256 0.000000 0.000000 0.000000 1.323876 -4.099294 -17.283330 -3.758094 2.496656 -1.126224 0.152509 -1.786514 -0.592269 0.000000 0.000000 0.000000
-25.768232 67.607609 233.886971 2.196604 3.645369 17.274653 0.269966 0.677990 -17.293937 -0.042645 0.313473 0.063445 -0.773252 -0.483015 -0.034546 0.000000 0.000000 0.000000 -0.851134 -3.002660 -0.130878 -1.362679 -1.682500 -0.023627 -0.000000 0.000000 0.000000 -0.000000 0.000000 0.000000 0.000000 0.000000 0.000000 0.000000 0.000000 0.000000 1.601120 -0.055277 1.081462 0.802581 -1.205594 0.673647 -2.639377 2.593061 -2.014975 -1.663849 5.165789 2.333690 0.000000 0.000000 0.000000 0.000000 0.000000 0.000000 1.939763 -3.296190 -16.178760 0.156358 2.022975 -1.774216 3.444976 2.329776 -2.584063 0.000000 0.000000 0.000000 1.402299 -4.650639 -17.309434 -6.695016 0.973406 -1.121406 3.627049 -0.222836 -4.590962 0.000000 0.000000 0.000000
